<?xml version="1.0" encoding="UTF-8"?>
<svg width="126px" height="35px" viewBox="0 0 126 35" version="1.1" xmlns="http://www.w3.org/2000/svg" xmlns:xlink="http://www.w3.org/1999/xlink">
    <title>Group 17</title>
    <g id="Desktop-Gradient-Backgrounds" stroke="none" stroke-width="1" fill="none" fill-rule="evenodd">
        <g id="Kevlar_NGA_Redesign_Scene2.1" transform="translate(-1562.000000, -950.000000)" fill="#FFFFFF">
            <g id="Group-19" transform="translate(1562.000000, 950.000000)">
                <path d="M23.7581438,4.19945795 C22.239246,4.19945795 20.0472351,4.64794538 16.0826674,5.87345446 L16.0826674,29.113049 C19.5689504,30.1689428 22.239246,30.7870455 23.7581438,30.7870455 C27.2597075,30.7870455 29.2316769,28.6446967 29.2316769,25.2080759 L29.2316769,9.77766356 C29.2316769,6.34104271 27.2597075,4.19945795 23.7581438,4.19945795 L23.7581438,4.19945795 Z M24.8988452,24.610602 C24.8988452,25.9553003 24.0920263,26.4037877 23.1255244,26.4037877 C22.3737159,26.4037877 21.2131496,26.1294998 20.2665126,25.8704926 L20.2665126,9.10531444 C21.2131496,8.85623965 22.3737159,8.58271581 23.1255244,8.58271581 C24.0920263,8.58271581 24.8988452,9.03120323 24.8988452,10.3759015 L24.8988452,24.610602 Z" id="Fill-1"></path>
                <path d="M73.8096461,0.0157655469 C69.3767261,-0.198163719 66.7369918,1.75928906 66.7369918,6.24187122 L66.7369918,28.5103797 C66.7369918,33.2420367 69.1276513,35.189557 73.8096461,34.9855602 C78.3915526,34.7861476 80.7829761,33.042624 80.7829761,28.0122302 L80.7829761,6.75453742 C80.7829761,1.95793767 78.6207625,0.249559673 73.8096461,0.0157655469 L73.8096461,0.0157655469 Z M75.9512309,28.1123185 C75.9512309,29.4570167 75.5035075,30.1538149 73.8096461,30.2042411 C72.0661226,30.2539032 71.5931861,29.5066789 71.5931861,28.1123185 L71.5931861,6.88900725 C71.5931861,5.49464685 72.0661226,4.7222094 73.8096461,4.77187155 C75.5035075,4.82229773 75.9512309,5.544309 75.9512309,6.88900725 L75.9512309,28.1123185 Z" id="Fill-3"></path>
                <path d="M125.465541,17.4427492 C125.465541,20.6608565 122.342938,23.6650347 116.902259,26.2489946 L116.902259,8.70603075 C122.342938,11.2731819 125.465541,14.2613154 125.465541,17.4427492" id="Fill-5"></path>
                <path d="M0,17.4433604 C0,20.6561195 3.11801905,23.6641178 8.55717064,26.2442576 L8.55717064,8.7119902 C3.11801905,11.2722651 0,14.2603985 0,17.4433604" id="Fill-7"></path>
                <path d="M41.4347371,27.3352204 C41.4347371,28.6799187 40.971733,29.5318156 39.2931523,29.3270547 C37.6443689,29.1284061 37.2012297,28.4308439 37.2012297,26.8370709 L37.2012297,1.54451936 C36.1056062,1.66447256 33.6645205,2.00293922 32.6185592,2.1526897 L32.6185592,27.7332817 C32.6185592,31.8178026 34.6012251,33.4069914 39.2931523,33.9448707 C43.5862542,34.4376721 46.2160561,32.26629 46.2160561,27.7332817 L46.2160561,0.707903125 C45.3198453,0.757565276 42.3813741,1.00664006 41.4347371,1.1067284 L41.4347371,27.3352204 Z" id="Fill-9"></path>
                <path d="M94.0562938,18.977386 L88.7516121,1.66974439 C87.3075895,1.48026418 85.564066,1.28619977 84.2193678,1.16089835 L84.2193678,33.8301893 C85.1660048,33.7400334 87.5765292,33.4665096 88.8219031,33.3068267 L88.4429427,14.0562489 L94.0562938,32.5550181 C95.2520056,32.3655379 96.9947651,32.0614527 98.1408148,31.8429393 L98.1408148,3.13898002 C96.945103,2.90442186 94.7737209,2.53615791 93.7277596,2.376475 L94.0562938,18.977386 Z" id="Fill-11"></path>
                <path d="M56.6061422,0.204940141 C55.7741101,0.204940141 52.7408988,0.309612674 49.952178,0.473879789 L49.952178,34.5169023 C50.8980509,34.5673285 53.3887988,34.6964501 54.7334971,34.7315956 L54.7334971,23.1710109 L56.6061422,23.1664267 C61.6166712,23.151146 63.6986614,20.9048887 63.6986614,16.5819895 L63.6986614,6.55023497 C63.6986614,2.31672761 61.357664,0.204940141 56.6061422,0.204940141 L56.6061422,0.204940141 Z M58.8676801,16.2228939 C58.8676801,17.6875454 58.3542499,18.4294215 56.4120778,18.4347697 L54.7334971,18.4393539 L54.7334971,5.00612409 C55.4807214,4.96639437 55.8787827,4.95646194 56.3272701,4.95646194 C58.4291251,4.95646194 58.8676801,5.75334846 58.8676801,7.24779719 L58.8676801,16.2228939 Z" id="Fill-13"></path>
                <path d="M100.506338,8.15921226 C101.689825,8.37161346 102.856503,8.60769969 103.992621,8.85601044 L103.992621,30.5774713 C105.038582,30.3337447 106.981518,29.8256627 108.276554,29.4421181 L108.276554,9.88210689 C109.518872,10.2037648 110.690899,10.5269508 111.762837,10.8340921 L111.762837,6.64489867 C108.381227,5.46446755 104.749777,4.50331392 100.506338,3.61703553 L100.506338,8.15921226 Z" id="Fill-15"></path>
                <path d="M121.115825,28.442992 L120.335747,28.442992 L120.335747,27.9998528 L122.379535,27.9998528 L122.379535,28.442992 L121.600222,28.442992 L121.600222,30.5272743 L121.115825,30.5272743 L121.115825,28.442992 Z M122.921235,27.9998528 L123.438485,27.9998528 L124.201754,29.1978567 L124.964259,27.9998528 L125.464701,27.9998528 L125.464701,30.5272743 L124.997113,30.5272743 L124.997113,28.7302685 L124.217799,29.9366767 L124.168901,29.9366767 L123.388823,28.7302685 L123.388823,30.5272743 L122.921235,30.5272743 L122.921235,27.9998528 Z" id="Fill-17"></path>
            </g>
        </g>
    </g>
</svg>